<svg id="Layer_2" data-name="Layer 2" xmlns="http://www.w3.org/2000/svg" viewBox="0 0 222.02 222.02"><g id="Logo"><polygon points="176.01 73.83 176.01 79.96 170.89 87.27 110.44 87.27 104.44 73.83 176.01 73.83"/><polygon points="176.01 135.27 176.01 148.23 137.68 148.23 134 140 134 139.99 133.98 139.94 131.89 135.27 176.01 135.27"/><polygon points="174.55 82 170.86 87.27 137.25 135.27 133.98 139.94 131.89 135.27 127.45 125.33 154.1 87.27 163.3 74.13 174.55 82"/><polygon points="176.01 79.96 176.01 87.27 170.89 87.27 176.01 79.96" style="fill:none"/><polyline points="170.89 87.27 137.31 135.27 134 139.99" style="fill:none"/><path d="M296.6,180.93c-12.44,1.22-17.12-6.28-17.69-7.28h0L256,122.18h0l-2-4.52L249.17,107c12.87-1.26,17.44,6.81,17.74,7.36a0,0,0,0,0,0,0Z" transform="translate(-168.99 -32.93)"/><path d="M266.91,114.31a0,0,0,0,0,0,0" transform="translate(-168.99 -32.93)" style="fill:none"/><path d="M245.69,145.24l-3.86,8.66,0,0-11.12,25,0,.06c-.31.62-.61,1.28-.89,2l-14.71,0L245,113.67C250.47,125.52,248.33,137.47,245.69,145.24Z" transform="translate(-168.99 -32.93)"/><path d="M230.66,179l-.89,2C230.05,180.25,230.35,179.59,230.66,179Z" transform="translate(-168.99 -32.93)" style="fill:none"/><path d="M264.78,160.1a6.61,6.61,0,0,1-6.3,6.78c-2.55-.19-18.24-1.14-26,9.24a18.61,18.61,0,0,0-1.75,2.79l11.12-25,0,0h16.65A6.59,6.59,0,0,1,264.78,160.1Z" transform="translate(-168.99 -32.93)"/><circle cx="111.01" cy="111.01" r="105.01" style="fill:none;stroke:#000;stroke-miterlimit:10;stroke-width:12px"/></g></svg>